# xmcd
#
# Track frame offsets:
#	183
#	46708
#	65953
#	82623
#	107368
#	160008
#	160720
#	162718
#	221235
#	239325
#	257448
#	275548
#
# Disc length: 4143 seconds
#
# Revision: 1
# Processed by: cddbd v1.5.2PL0 Copyright (c) Steve Scherf et al.
# Submitted via: audiograbber 1.83.01
#
DISCID=99102d0c
DTITLE=Dizzy Gillespie - Copenhagen Concert
DYEAR=1992
DGENRE=Bob Jazz
TTITLE0=I Found A Million Dollar Baby
TTITLE1=My Man
TTITLE2=Oh! Lady Be Good
TTITLE3=They Can't Take That Away
TTITLE4=Wheatleigh Hall
TTITLE5=A Short One
TTITLE6=Introduction
TTITLE7=A Night In Tunisia
TTITLE8=Lorraine
TTITLE9=Ohh-Shoo-Be-Doo-Bee
TTITLE10=There Is No Greater Love
TTITLE11=Woody'n You
EXTD=
EXTT0=
EXTT1=
EXTT2=
EXTT3=
EXTT4=
EXTT5=
EXTT6=
EXTT7=
EXTT8=
EXTT9=
EXTT10=
EXTT11=
PLAYORDER=
